<svg width="14" height="14" viewBox="0 0 14 14" fill="none" xmlns="http://www.w3.org/2000/svg">
<path fill-rule="evenodd" clip-rule="evenodd" d="M12.1442 0.288706L6.91516 5.47971L1.68921 0.288706C1.30176 -0.095686 0.676758 -0.095686 0.289185 0.288706C0.104126 0.472002 0 0.721697 0 0.982202C0 1.24271 0.104126 1.4924 0.289185 1.67571L5.57615 6.92434L0.289307 12.1737C0.104247 12.357 0.000122179 12.6067 0.000122156 12.8672C0.000122133 13.1277 0.104247 13.3774 0.289307 13.5607C0.676513 13.9457 1.302 13.9457 1.68933 13.5607L6.91834 8.36972L12.1443 13.5607C12.5317 13.9451 13.1567 13.9451 13.5443 13.5607C13.7294 13.3774 13.8335 13.1277 13.8335 12.8672C13.8335 12.6067 13.7294 12.357 13.5443 12.1737L8.25735 6.92509L13.5442 1.6757C13.7292 1.4924 13.8334 1.24271 13.8334 0.982202C13.8334 0.721697 13.7292 0.472002 13.5442 0.288706C13.157 -0.0962353 12.5315 -0.0962353 12.1442 0.288706Z" fill="#F3654A"/>
</svg>
