<svg width="24" height="21" viewBox="0 0 24 21" fill="none" xmlns="http://www.w3.org/2000/svg">
<path fill-rule="evenodd" clip-rule="evenodd" d="M7.66514 20.8315C3.73714 20.8315 0.994141 18.3088 0.994141 14.6973V6.66179C0.994141 3.05122 3.73714 0.528564 7.66514 0.528564H17.3321C21.2611 0.529426 24.0001 3.05117 24.0001 6.66179V14.6982C24.0001 18.3088 21.2581 20.8324 17.3281 20.8324L7.66514 20.8315ZM3.37305 6.66086V14.6973C3.37305 17.1864 5.01705 18.7323 7.66505 18.7323H17.332C19.98 18.7323 21.625 17.1864 21.625 14.6973V6.66178C21.625 4.17353 19.98 2.62855 17.332 2.62855H7.66505C5.01704 2.62855 3.37305 4.17353 3.37305 6.66178V6.66086ZM11.3202 14.1468L11.3102 14.0294V11.7203H8.71725C8.08894 11.7241 7.56572 11.2959 7.52283 10.7428C7.47995 10.1897 7.93221 9.70262 8.55524 9.63089L8.68925 9.62205H11.3092V7.33765C11.3054 6.78343 11.7908 6.32217 12.4176 6.28452C13.0443 6.24693 13.596 6.64594 13.6772 7.19558L13.6882 7.31293V9.62205H16.2822C16.9103 9.61877 17.433 10.0471 17.4756 10.6001C17.5182 11.153 17.0661 11.6398 16.4432 11.7115L16.3102 11.7211H13.6882V14.0055C13.6921 14.5598 13.2067 15.021 12.5799 15.0587C11.9532 15.0963 11.4015 14.6973 11.3203 14.1476L11.3202 14.1468Z" fill="white"/>
</svg>
