<svg width="21" height="21" viewBox="0 0 21 21" fill="none" xmlns="http://www.w3.org/2000/svg">
<path fill-rule="evenodd" clip-rule="evenodd" d="M19.1852 19.9344L14.6742 15.4974C11.1559 18.2249 6.08606 17.7828 3.11047 14.4889C0.13501 11.195 0.284912 6.19084 3.45251 3.07506C6.62012 -0.0407199 11.7078 -0.188375 15.0565 2.73827C18.4054 5.66492 18.8551 10.6517 16.0823 14.1124L20.5931 18.5505C20.8856 18.7887 21.0157 19.1692 20.929 19.5329C20.8423 19.8965 20.5536 20.1804 20.184 20.2658C19.8142 20.3511 19.4272 20.2231 19.1852 19.9354V19.9344ZM2.96313 8.95937C2.96313 11.5171 4.52063 13.8271 6.91699 14.8227C9.31323 15.8183 12.0826 15.3059 13.9475 13.522C13.9672 13.4997 13.9871 13.4781 14.0071 13.4574C14.0271 13.4367 14.05 13.4171 14.072 13.3994C16.1074 11.3423 16.4913 8.19971 15.0094 5.7268C13.5275 3.25389 10.5463 2.06246 7.73071 2.81791C4.91516 3.57336 2.96204 6.08878 2.96191 8.95934L2.96313 8.95937Z" fill="#99B2C6"/>
</svg>
